Coordinates
version=1
nRows=9
nColumns=36
inDegrees=yes

Units are S.I. units (second, meters, Newtons, ...)
If the header above contains a line with 'inDegrees', this indicates whether rotational values are in degrees (yes) or radians (no).

endheader
time	pelvis_tilt	pelvis_list	pelvis_rotation	pelvis_tx	pelvis_ty	pelvis_tz	hip_flexion_r	hip_adduction_r	hip_rotation_r	knee_angle_r	knee_angle_r_beta	ankle_angle_r	subtalar_angle_r	mtp_angle_r	hip_flexion_l	hip_adduction_l	hip_rotation_l	knee_angle_l	knee_angle_l_beta	ankle_angle_l	subtalar_angle_l	mtp_angle_l	lumbar_extension	lumbar_bending	lumbar_rotation	arm_flex_r	arm_add_r	arm_rot_r	elbow_flex_r	pro_sup_r	arm_flex_l	arm_add_l	arm_rot_l	elbow_flex_l	pro_sup_l
      3.43750000	    -25.91535655	     -1.02405061	      1.22541696	      0.25067222	      0.79827354	     -0.03974598	     55.08297665	    -15.47469463	    -10.59787443	     50.15730464	      0.87541011	     20.66870711	     19.94638925	     -7.49999987	     60.05827672	    -11.27995015	     -9.10726697	     51.25949191	      0.89464691	     17.42383827	      8.82763849	     -7.49999987	    -15.06604603	      5.75297616	      0.92215696	     17.45360316	    -58.36922983	      8.02346267	    101.15971896	     81.27053980	    209.08536741	   -134.22469891	    194.16515842	     90.79243848	     76.08901265
      3.44166670	    -25.79859542	     -0.87774051	      1.13823303	      0.25101053	      0.79845618	     -0.03966492	     54.89463969	    -15.53071403	    -10.61320636	     49.86989629	      0.87039389	     20.64633699	     20.24238439	     -7.49999987	     59.40309381	    -11.08594868	     -9.07548110	     50.34271518	      0.87864613	     17.28512766	      8.98103729	     -7.49999987	    -14.85887356	      5.63486732	      0.89876004	     17.06050358	    -58.17483602	      8.28083126	    100.14619939	     79.41997933	    207.49183473	   -134.54874458	    192.78633040	     89.39109164	     74.48150892
      3.44583330	    -25.82988207	     -0.66471802	      0.94402156	      0.25084103	      0.80179237	     -0.03986230	     54.82955476	    -15.48424683	    -10.48502614	     49.42637992	      0.86265307	     20.42651412	     20.37773551	     -7.49999987	     58.75388530	    -10.71974414	     -8.84094112	     49.28379739	      0.86016453	     17.08005181	      8.92004771	     -7.49999987	    -14.79593435	      5.38470110	      0.54916933	     16.22480741	    -57.64079062	      7.83793388	     99.50936403	     79.25014815	    204.59559351	   -134.87498631	    189.58344375	     89.30070694	     73.72285135
      3.45000000	    -25.84287577	     -0.40275811	      0.85193499	      0.25095916	      0.80522189	     -0.03909534	     54.62967100	    -15.40774721	    -10.49829965	     48.68778198	      0.84976210	     19.92693737	     20.03101174	     -7.49999987	     57.74689957	    -10.34152368	     -8.92110565	     47.49671014	      0.82897398	     16.55208242	      8.85763187	     -7.49999987	    -14.34526974	      5.02923298	     -0.00072541	     15.19069025	    -56.89048744	      8.19430416	     98.73475468	     78.72135825	    202.85034557	   -134.86395137	    188.71116822	     88.97046381	     73.27134584
      3.45416670	    -25.79581327	     -0.03500000	      0.65470631	      0.25060011	      0.80852700	     -0.03851843	     54.21580439	    -15.38144840	    -10.69409474	     47.86880624	      0.83546828	     19.66758630	     19.96321285	     -7.49999987	     56.49499230	    -10.06671750	     -9.42277674	     45.59261242	      0.79574120	     16.06707499	      8.69490699	     -7.49999987	    -13.85303141	      4.21086050	     -0.60259077	     13.36410934	    -55.55327257	      7.97206553	     97.87802924	     78.79592570	    200.78316256	   -134.81952736	    187.45380766	     88.90197724	     73.13174657
      3.45833330	    -25.71892928	      0.39000672	      0.49755850	      0.25501057	      0.81499914	     -0.04207080	     53.53816755	    -15.53132107	    -10.83261555	     46.83342987	      0.81739755	     19.13301032	     19.95988303	     -7.49999987	     54.93147146	     -9.62023568	    -10.38645964	     43.31610992	      0.75600874	     15.47347180	      8.90858035	     -7.49999987	    -13.44152683	      3.47839475	     -0.90486876	     11.41080024	    -54.53027089	      7.53534264	     96.67580777	     79.01636254	    198.69928496	   -135.22440498	    186.98237479	     88.37111247	     73.09230636
      3.46250000	    -25.72310993	      0.53248536	      0.65842944	      0.25483973	      0.82113709	     -0.04222607	     52.58389512	    -15.55974412	    -10.91729713	     45.35220580	      0.79154531	     18.50688342	     20.01746727	     -7.49999987	     53.79492431	     -9.22363619	    -10.99078834	     41.41139510	      0.72276519	     14.52724245	      9.43628928	     -7.49999987	    -13.13004681	      3.14812714	     -1.29988835	      9.75793372	    -53.67652613	      7.60211879	     95.92968851	     79.11908798	    196.97169696	   -135.40390793	    187.24211864	     88.10825514	     73.10716825
      3.46666670	    -25.47563484	      0.86946339	      0.61722729	      0.25559035	      0.82424035	     -0.04139289	     51.57740533	    -15.67277417	    -10.80153322	     44.04879201	      0.76879645	     18.02169956	     20.31687794	     -7.49999987	     52.39001566	     -8.77244791	    -11.68515334	     39.67617503	      0.69247989	     13.59786214	      9.22512410	     -7.49999987	    -13.19743535	      2.54329855	     -1.57969170	      8.88465964	    -52.38660108	      7.06389526	     94.51672500	     78.81365593	    195.66658573	   -135.55241730	    187.26148045	     87.32923461	     72.76090003
      3.47083330	    -25.59689833	      0.96182145	      0.54292811	      0.25484001	      0.82399981	     -0.04130548	     51.30720154	    -15.50349420	    -10.77816716	     43.15081746	      0.75312384	     17.76999606	     20.18764451	     -7.49999987	     52.10351927	     -8.69153184	    -12.12918260	     38.97052517	      0.68016398	     13.20786734	      8.91837120	     -7.49999987	    -12.91664498	      2.36523989	     -1.66957558	      8.35198884	    -52.37711478	      7.07680721	     93.90241253	     78.32236390	    194.52752202	   -135.64702826	    187.40145763	     87.04880138	     72.42389110
